<svg xmlns="http://www.w3.org/2000/svg" viewBox="0 0 100 100">
  <defs>
    <linearGradient id="tricolor" x1="0" y1="0" x2="0" y2="1">
      <stop offset="0%" stop-color="#ffffff"/>
      <stop offset="33%" stop-color="#ffffff"/>
      <stop offset="33%" stop-color="#0039A6"/>
      <stop offset="66%" stop-color="#0039A6"/>
      <stop offset="66%" stop-color="#D52B1E"/>
      <stop offset="100%" stop-color="#D52B1E"/>
    </linearGradient>
    <clipPath id="russia">
      <path d="M2,38 L8,34 L12,30 L18,28 L22,24 L28,22 L32,20 L36,18 L42,17 L46,16 L50,16 L54,16 L58,17 L62,18 L66,20 L70,22 L74,24 L76,22 L78,20 L80,18 L82,20 L84,22 L86,24 L88,26 L90,28 L92,26 L94,24 L96,26 L98,28 L96,32 L94,34 L92,36 L90,38 L92,40 L94,42 L96,44 L98,46 L96,50 L94,52 L92,54 L90,56 L88,58 L86,60 L84,62 L82,64 L80,66 L78,68 L76,70 L74,72 L72,74 L70,76 L68,78 L66,80 L64,82 L62,84 L60,86 L58,88 L56,90 L54,88 L52,86 L50,84 L48,82 L46,80 L44,78 L42,76 L40,74 L38,72 L36,70 L34,68 L32,66 L30,64 L28,62 L26,60 L24,58 L22,56 L20,54 L18,52 L16,50 L14,48 L12,46 L10,44 L8,42 L6,40 L4,38 Z"/>
    </clipPath>
  </defs>
  <rect width="100" height="100" fill="#0d1117"/>
  <rect width="100" height="100" fill="url(#tricolor)" clip-path="url(#russia)"/>
</svg>
