<svg xmlns="http://www.w3.org/2000/svg" viewBox="0 0 900 440">
  <defs>
    <linearGradient id="tri" x1="0" y1="0" x2="0" y2="440" gradientUnits="userSpaceOnUse">
      <stop offset="0%"    stop-color="#ffffff"/>
      <stop offset="33.3%" stop-color="#ffffff"/>
      <stop offset="33.3%" stop-color="#0039A6"/>
      <stop offset="66.6%" stop-color="#0039A6"/>
      <stop offset="66.6%" stop-color="#D52B1E"/>
      <stop offset="100%"  stop-color="#D52B1E"/>
    </linearGradient>
  </defs>
  <path fill="url(#tri)" d="
    M0,175 L8,158 L18,142 L32,128 L48,116 L64,106 L80,98 L96,92
    L108,85 L116,78 L122,70 L126,62 L130,55 L136,50 L144,46 L152,43
    L160,40 L166,35 L170,28 L175,22 L180,16 L186,11 L194,7 L204,4
    L216,2 L228,1 L240,2 L252,1 L264,0 L276,2 L288,0 L300,2
    L312,4 L324,2 L336,0 L348,2 L360,4 L372,2 L384,0 L396,2
    L408,4 L420,2 L432,0 L444,2 L456,4 L468,2 L480,0 L492,2
    L504,4 L516,2 L528,0 L540,2 L552,4 L564,2 L576,0 L588,2
    L600,4 L612,2 L624,0 L636,2 L648,4 L658,2 L668,0 L678,2
    L688,4 L698,2 L708,0 L718,2 L728,4 L738,2 L748,0 L758,2
    L768,4 L778,2 L788,0 L798,3 L808,7 L818,12 L828,17 L838,22
    L848,18 L858,14 L868,16 L878,20 L886,26 L892,33 L896,42 L898,52
    L896,64 L892,78 L888,92 L884,108 L880,122 L876,136 L872,150
    L868,162 L864,172 L860,180 L855,186 L849,190 L843,192 L836,190
    L829,186 L822,180 L815,172 L808,164 L801,158 L794,154 L787,152
    L780,154 L773,158 L766,164 L759,170 L752,174 L745,176 L738,174
    L731,170 L724,164 L717,158 L710,154 L703,152 L696,154 L689,160
    L682,168 L675,176 L668,182 L661,186 L654,184 L647,178 L640,170
    L633,162 L626,156 L619,152 L612,154 L605,160 L598,170 L591,180
    L584,190 L577,198 L570,202 L563,200 L556,194 L549,186 L542,178
    L535,172 L528,170 L521,172 L514,178 L507,186 L500,196 L493,206
    L486,214 L479,218 L472,216 L465,210 L458,202 L451,194 L444,188
    L437,184 L430,186 L423,192 L416,202 L409,214 L402,226 L395,236
    L388,244 L381,248 L374,246 L367,240 L360,232 L353,224 L346,218
    L339,216 L332,218 L325,224 L318,234 L311,246 L304,258 L297,270
    L290,280 L283,286 L276,284 L269,278 L262,268 L255,258 L248,250
    L241,246 L234,248 L227,254 L220,264 L213,276 L206,288 L199,298
    L192,304 L185,306 L178,302 L171,294 L164,284 L157,274 L150,268
    L143,266 L136,270 L129,278 L122,290 L115,304 L108,318 L101,330
    L94,338 L87,342 L80,338 L73,330 L66,318 L59,306 L52,298 L45,296
    L38,300 L31,310 L24,322 L17,330 L10,332 L4,326 L0,316 Z
  "/>
</svg>